<?xml version="1.0" encoding="utf-8"?>
<!-- Generator: Adobe Illustrator 19.2.1, SVG Export Plug-In . SVG Version: 6.00 Build 0)  -->
<svg version="1.1" id="Layer_1" xmlns="http://www.w3.org/2000/svg" xmlns:xlink="http://www.w3.org/1999/xlink" x="0px" y="0px"
	 viewBox="0 0 439.3 288" style="enable-background:new 0 0 439.3 288;" xml:space="preserve">
<style type="text/css">
	.st0{fill:#FFFFFF;}
</style>
<g>
	<path class="st0" d="M71,106.6c0,0.9,0.7,1.6,1.6,1.6H81c0.9,0,1.6-0.7,1.6-1.6v-2.9H71V106.6z M76.7,155.8c-2.1,0-3.8,1.7-3.8,3.8
		v8.6h7.6v-8.1v-0.5C80.6,157.5,78.9,155.8,76.7,155.8z M213.4,150.4h-21.2v1.4H212 M248.1,150.4h-21l1.3,1.4h19.7 M195.5,154.1h6
		v13.2h-6V154.1z M206.3,154.1h6v13.2h-6V154.1z M238.8,154.1h5.9v13.2h-5.9V154.1z M223.3,167v-9.9v-0.5c0-1.9-1.5-3.4-3.4-3.4
		s-3.4,1.5-3.4,3.4V167H223.3z M228.2,154.1h5.9v13.2h-5.9V154.1z M180.6,158.2h2.1v6.7h-2.1V158.2z M180.6,147h2.1v6.7h-2.1V147z
		 M180.6,135.7h2.1v6.7h-2.1V135.7z M184.5,158.2h2.1v6.7h-2.1V158.2z M184.5,147h2.1v6.7h-2.1V147z M184.5,135.7h2.1v6.7h-2.1
		V135.7z M188.3,158.2h2.1v6.7h-2.1V158.2z M188.3,147h2.1v6.7h-2.1V147z M188.3,135.7h2.1v6.7h-2.1V135.7z M369.1,106.6v-2.9h-11.6
		v2.9c0,0.9,0.7,1.6,1.6,1.6h8.4C368.4,108.2,369.1,107.5,369.1,106.6z M363.3,155.8c-2.1,0-3.8,1.7-3.8,3.8v8.6h7.6v-8.1v-0.5
		C367.1,157.5,365.4,155.8,363.3,155.8L363.3,155.8z M257.3,158.2h2.1v6.7h-2.1V158.2z M257.3,147h2.1v6.7h-2.1V147z M257.3,135.7
		h2.1v6.7h-2.1V135.7z M253.5,158.2h2.1v6.7h-2.1V158.2z M253.5,147h2.1v6.7h-2.1V147z M253.5,135.7h2.1v6.7h-2.1V135.7z
		 M249.6,158.2h2.1v6.7h-2.1V158.2z M249.6,147h2.1v6.7h-2.1V147z M249.6,135.7h2.1v6.7h-2.1V135.7z"/>
	<path class="st0" d="M403.7,79c-12.5-16.8-29.9-30.6-50.3-39.7C315,22.1,272.5,14.1,219.6,13.9c-52.2-0.1-94.7,7.9-133.7,25.4
		c-20.4,9.2-37.8,22.8-50.3,39.6c-13.3,17.9-20.3,38.4-20.3,59.4s7,41.6,20.3,59.5c12.5,16.8,29.9,30.6,50.3,39.7
		c38.4,17.2,80.9,25.2,133.8,25.4c52.2,0.1,94.7-7.9,133.7-25.4c20.4-9.2,37.8-22.8,50.3-39.6C417,180,424,159.5,424,138.5
		C424.1,117.5,417,96.9,403.7,79z M401.9,196.6c-12.2,16.4-29.3,29.9-49.4,38.9c-38.7,17.3-80.8,25.3-132.7,25.2
		c-52.6-0.1-94.8-8.1-132.9-25.2c-20-9-37.1-22.5-49.4-39c-13-17.5-19.9-37.6-19.9-58.2c0-20.5,6.9-40.6,19.9-58.1
		c12.2-16.4,29.3-29.9,49.4-38.9C125.6,24,167.7,16,219.6,16.1c52.6,0.1,94.8,8.1,132.9,25.2c20,9,37.1,22.5,49.4,39
		c13,17.5,19.9,37.6,19.9,58.2S414.9,179.2,401.9,196.6L401.9,196.6z"/>
	<path class="st0" d="M398.2,83.1c-11.8-15.9-28.2-28.9-47.6-37.5c-37.4-16.8-79.1-24.6-131-24.8c-51.2-0.1-92.8,7.7-130.8,24.8
		C69.4,54.3,53,67.2,41.2,83c-12.4,16.7-19,35.8-19,55.3s6.6,38.7,19,55.4c11.8,15.9,28.2,28.9,47.6,37.5
		c37.4,16.8,79.1,24.6,131,24.8c51.2,0.1,92.8-7.7,130.8-24.8c19.4-8.7,35.8-21.6,47.6-37.4c12.4-16.7,19-35.8,19-55.3
		C417.1,119,410.6,99.8,398.2,83.1L398.2,83.1z M394.5,191.1c-11.3,15.2-27.1,27.6-45.8,35.9c-37.4,16.8-78.4,24.5-128.9,24.4
		c-51.3-0.1-92.3-7.9-129.1-24.4c-18.6-8.3-34.4-20.8-45.8-36.1c-11.8-15.9-18.1-34.1-18.1-52.7c0-18.5,6.2-36.7,18-52.6
		C56.1,70.4,71.9,58,90.6,49.7C128,32.9,169,25.2,219.5,25.3c51.3,0.1,92.3,7.9,129.1,24.4c18.6,8.3,34.4,20.8,45.8,36.1
		c11.8,15.9,18.1,34.1,18.1,52.7S406.3,175.3,394.5,191.1z"/>
	<path class="st0" d="M94.3,191.4c0-2.5,2.5-3.3,4.5-3.3s4.1,0.8,5.5,2.3v-4.1c-1.7-0.5-3.5-0.8-5.2-0.8c-4.3,0-8.8,1.7-8.8,6.3
		c0,7.7,12.1,6.7,12.1,12.3c0,2.5-3,3.8-5,3.8c-2.7,0-5.6-1.2-7.7-3l1,4.5c2,0.8,4.1,1.1,6.3,1.1c5.5,0,9.4-3.6,9.4-7.5
		C106.4,196.3,94.3,196.4,94.3,191.4L94.3,191.4z M136,186.2c2.7,1,1.6,3.9,0.9,6l-4,13.3l-4.9-15.7c-0.5-1.6-0.7-2.8-0.5-3.7h-5
		v0.1c1.9,1,1.2,3.4,0.6,5.6l-4.1,13.8l-5.2-16.9c-0.2-0.7-0.6-1.8-0.4-2.6h-5.1v0.1c1.8,1.2,2.3,3.6,2.9,5.6l4.1,13.4
		c1.2,3.7,1.5,3.5,4.7,5.9l5.5-18.3l3.9,12.5c1.2,3.7,1.4,3.6,4.6,5.8l7.4-24.9L136,186.2L136,186.2z M163.1,204.7l-7.3-18.6h-5.6
		v0.1c1.7,0.5,1,2.1,0.5,3.4l-5.9,15.1c-0.8,2.1-1.4,4.1-3.4,5.1v0.1h6.5v-0.1c-1.7-0.6-1.4-1.7-0.7-3.7l1.8-5.1h8.9l1.9,5.1
		c0.9,2.5,1.2,2.9-0.5,3.7v0.1h7.2v-0.1C164.5,208.8,163.9,206.7,163.1,204.7z M150,198.3l3.5-9.1l3.4,9.1H150z M183.8,204.9
		l-5.1-6.6c2.9-0.7,5.6-3.2,5.6-6.4c0-3.3-2.6-5.8-7.3-5.8h-8.3v0.1c1.8,0.7,1.5,3.3,1.5,5v13.7c0,1.6,0.2,4.3-1.5,5v0.1h6.7v-0.1
		c-1.8-0.6-1.6-3.3-1.6-5v-16.2c0.8-0.1,1.6-0.3,2.4-0.3c2.4-0.1,4.5,1.4,4.5,4c0,3.4-3.3,4.8-6.1,5.2l3.2,5.1l4.3,5.5
		c1.1,1.3,2.2,1.8,4.1,1.8h3.2C187.5,208.6,185.2,206.7,183.8,204.9z M205.5,186.1h-14c-0.5-0.1-0.9-0.1-1.3-0.3h-0.1l-1.2,4.3h0.1
		c1.1-1.1,2.7-1.5,4.2-1.5h3.1v16.3c0,1.6,0.2,4.3-1.5,5v0.1h7v-0.1c-1.9-1.1-1.8-2.5-1.8-4.6v-16.5h3.2c1.2,0,2.6,0.2,3,1.5h0.1
		l1.1-4.3h-0.1C206.7,186.1,206.1,186.1,205.5,186.1L205.5,186.1z M228.7,186.2c1.8,0.7,1.5,3.3,1.5,5v4.5h-12.7v-4.5
		c0-1.7-0.2-4.3,1.5-5v-0.1h-6.7v0.1c1.8,0.7,1.5,3.3,1.5,5v13.7c0,1.6,0.2,4.3-1.5,5v0.1h6.7v-0.1c-1.8-0.7-1.5-3.3-1.5-5v-6.6
		h12.7v6.6c0,1.6,0.2,4.3-1.5,5v0.1h6.7v-0.1c-1.8-0.7-1.6-3.3-1.6-5v-13.7c0-1.6-0.2-4.3,1.6-5v-0.1h-6.7V186.2z M272.1,206.1
		l-2.3-17.8c0-0.8,0.2-1.9,1.1-2.1v-0.1h-6.1c0,0.8-0.2,1.5-0.5,2.2l-5.8,15.4l-6.6-16c-0.2-0.5-0.5-1.1-0.5-1.6h-6.1v0.1
		c1.6,0.9,1.2,2.4,1.1,3.4l-2,15.2c-0.3,2-0.5,3.7-2,5.1v0.1h5.7v-0.1c-1.7-0.8-1.4-2.4-1.1-4.6l2-15.6l6.7,16.3
		c0.8,2,1.3,3,3.1,4.4l7.9-20.8l2,17.5c0,1.2-0.2,2.3-1.4,2.7v0.1h6.8v-0.1C272.4,208.8,272.3,207.8,272.1,206.1L272.1,206.1z
		 M291.3,185.5c-7.4-0.2-13.2,5.6-13.2,12.5c0,7.4,5.9,12.6,12.8,12.6c7,0,12.9-5.4,12.9-12.8C303.9,191.2,298.7,185.4,291.3,185.5
		L291.3,185.5z M291.1,207.9c-5.5,0-9-5.2-9-10.3c0-5.5,3.5-9.5,8.9-9.5c5.6,0,8.8,5.1,8.8,10.4
		C299.9,203.9,296.5,207.9,291.1,207.9L291.1,207.9z M324,204.9l-5.1-6.6c2.9-0.7,5.6-3.2,5.6-6.4c0-3.3-2.6-5.8-7.3-5.8h-8.4v0.1
		c1.8,0.7,1.5,3.3,1.5,5v13.7c0,1.6,0.2,4.3-1.5,5v0.1h6.7v-0.1c-1.8-0.6-1.6-3.3-1.6-5v-16.2c0.8-0.1,1.6-0.3,2.4-0.3
		c2.4-0.1,4.5,1.4,4.5,4c0,3.4-3.3,4.8-6.1,5.2l3.2,5.1l4.3,5.5c1.1,1.3,2.2,1.8,4.1,1.8h3.2C327.7,208.6,325.5,206.7,324,204.9
		L324,204.9z M341.8,207.3l-4.5-0.4v-8.6h2.6c1.1,0,2.6,0,3.1,1h0.1v-3.8H343c-0.4,0.2-1,0.2-1.5,0.2h-4.2V189
		c1.1-0.2,2.4-0.3,3.6-0.3c1.6,0,3.1,0.1,4.1,1.5h0.1v-4.3H345c-0.5,0.3-1.1,0.2-1.7,0.2h-11.2v0.1c1.8,0.7,1.6,3.3,1.6,5v13.7
		c0,1.6,0.2,4.3-1.6,5v0.1h14.6l1.6-4.7h-0.1C346.6,206.8,344.2,207.5,341.8,207.3z M325,169.5c0-0.4-0.1-0.8-0.1-1.2H340v-35.5h-17
		v-1.6h18.6v37.1h15.1v-13.2c0-1.2,0.8-2.1,1.8-2.1h1.9v-6.1h1.9v6.1h1.9v-6.1h1.9v6.1h1.9c1,0,1.8,1,1.8,2.1v13.2H385v-62.2h-3.1
		v13.5l-10.2-10.2h-17.6l-9.6,9.6v-12.9h-3.1v12.3h-18.6c0-0.8,0.1-1.4,0.1-1.7c0.3-2,1.6-5,3-8.2c0.7-1.7,1.5-3.4,2.2-5.2
		c1.6,1.1,3.6,1.8,5.9,1.9c3.2,0.1,6.1-1.1,7.9-3c2.9,1,5.9,0.7,8.1-0.5c-0.2-1.1-0.7-2.2-1.5-3.3c2.3,0.4,4.5,0,6.3-1
		c-0.4-2-1.6-3.9-3.4-5.3c2.9-0.1,5.5-1.4,7.2-3.2c-0.9-1.5-2.4-2.7-4.1-3.5c1.5-1.4,2.5-3.2,2.8-5c-2.5-1.3-5.7-1.4-8.8,0l-0.6,0.3
		c0.4-0.7,0.8-1.4,1.1-2.2c1.3-3.4,0.9-7-0.8-9.5c-2.2,0.7-4.1,2.4-5.4,4.7c0.1-0.5,0.1-0.9,0.1-1.4c0-3.7-1.7-6.9-4.2-8.5
		c-1.6,1.3-2.8,3.4-3.3,5.8c-0.8,0.5-1.6,1.2-2.2,2h-0.7c1-1.6,1.6-3.6,1.6-5.8c0-3.7-1.7-6.9-4.2-8.5c-1.4,1.1-2.4,2.7-3,4.6
		c-0.2-0.2-0.3-0.4-0.5-0.6c-1.9-2.2-4.3-3.4-6.7-3.7c-1.7-1.1-3.6-1.6-5.4-1.6c-0.4,1.6-0.4,3.3,0.1,5c-0.7-1-1.5-1.8-2.4-2.4
		c-2.1,1.8-3.5,4.7-3.5,8c0,1.4,0.2,2.7,0.7,3.9c-0.2,0.3-0.5,0.6-0.7,1l-0.9-1.2c-1.5-1.7-3.3-2.8-5.1-3.3c0.6-1.8,0.7-3.7,0.3-5.4
		c-2.8-0.1-5.7,1.2-7.9,3.8c-0.3,0.3-0.5,0.6-0.7,0.9c-0.2-1.3-0.6-2.5-1.2-3.5c0.2,0,0.5-0.1,0.7-0.1c3.6-0.8,6.3-3.2,7.4-6
		c-2.2-1.7-5.4-2.4-8.6-1.6c-2.2,0.5-4,1.6-5.4,2.9c-0.9-1.4-2.1-2.5-3.4-3.2c-0.3,0.3-0.5,0.6-0.8,0.9c-0.5,0-1.1,0-1.6,0.1
		c-0.3-3.2-1.9-5.8-4.1-7.3c-1.7,1.4-3,3.7-3.4,6.3c-0.2-0.5-0.4-0.9-0.6-1.4c-1.5-3-4.1-5-6.7-5.6c-1.5,2.6-1.6,6.2,0.1,9.5v0.1
		c-2-1.6-4.3-2.5-6.6-2.4c-0.5,1.8-0.4,3.8,0.4,5.8c-2.1-2-4.7-3-7.1-2.9c-0.7,2.4-0.2,5.3,1.4,7.8c-0.2-0.1-0.3-0.2-0.5-0.2
		c-3-1.4-6.3-1.3-8.8-0.1c0.5,3,2.7,5.8,6.1,7.3c2.5,1.1,5.1,1.3,7.3,0.6c0.1,0.5,0.2,1,0.4,1.5c-0.4-0.1-0.9-0.2-1.3-0.2
		c-1.4-0.7-2.9-1.1-4.6-1.2c-3.3-0.1-6.3,1.2-8.1,3.2c1.6,2.5,4.7,4.4,8.4,4.5c1.4,0,2.8-0.2,4-0.6c0.2,0.6,0.6,1.2,0.9,1.8
		c-1.4-0.1-2.7,0.1-3.9,0.6c0.2,3,2.2,6,5.4,7.8c0.9,0.5,1.7,0.8,2.6,1.1c-3.1-0.2-5.9,0.7-7.8,2.5c1.3,2.7,4.3,4.8,7.9,5.2
		c2.8,0.4,5.4-0.3,7.4-1.6c1.9,5.1,3.9,11.3,4.1,15.2c0.1,1.2,0.1,3.1,0.2,5.4h-15.6l-1.1-2.7h-6.2l-1.6-1.6v-8.5h-59.6v8.2
		l-1.9,1.9h-6.1l-1.1,2.7h-15.6c0.1-2.4,0.2-4.3,0.2-5.4c0.2-3.9,2.2-10.2,4.1-15.2c2,1.3,4.6,2,7.4,1.6c3.6-0.5,6.6-2.5,7.9-5.2
		c-1.9-1.8-4.7-2.7-7.8-2.5c0.9-0.2,1.8-0.6,2.6-1.1c3.2-1.8,5.2-4.8,5.4-7.8c-1.2-0.5-2.5-0.6-3.9-0.6c0.4-0.6,0.7-1.2,0.9-1.8
		c1.2,0.4,2.6,0.6,4,0.6c3.7-0.1,6.8-1.9,8.4-4.5c-1.8-2.1-4.8-3.4-8.1-3.2c-1.7,0.1-3.3,0.5-4.6,1.2c-0.4,0-0.9,0.1-1.3,0.2
		c0.2-0.5,0.3-1,0.4-1.5c2.2,0.6,4.9,0.5,7.3-0.6c3.4-1.5,5.6-4.4,6.1-7.3c-2.5-1.2-5.7-1.3-8.8,0.1c-0.2,0.1-0.3,0.2-0.5,0.2
		c1.6-2.5,2.1-5.4,1.4-7.8c-2.4-0.1-5,0.9-7.1,2.9c0.7-1.9,0.9-4,0.4-5.8c-2.2-0.1-4.6,0.8-6.6,2.4v-0.1c1.6-3.3,1.6-6.9,0.1-9.5
		c-2.7,0.6-5.2,2.6-6.7,5.6c-0.2,0.5-0.4,0.9-0.6,1.4c-0.4-2.6-1.6-4.8-3.4-6.3c-2.2,1.5-3.8,4.2-4.1,7.3c-0.5-0.1-1.1-0.1-1.6-0.1
		c-0.2-0.3-0.5-0.6-0.8-0.9c-1.3,0.7-2.5,1.8-3.4,3.2c-1.4-1.4-3.2-2.4-5.4-2.9c-3.2-0.7-6.4,0-8.6,1.6c1.1,2.8,3.8,5.2,7.4,6
		c0.2,0.1,0.5,0.1,0.7,0.1c-0.6,1-1.1,2.2-1.2,3.5c-0.2-0.3-0.5-0.6-0.7-0.9c-2.2-2.5-5.2-3.8-7.9-3.8c-0.5,1.7-0.4,3.6,0.3,5.4
		c-1.9,0.6-3.6,1.7-5.1,3.3l-0.9,1.2c-0.2-0.3-0.4-0.7-0.7-1c0.4-1.2,0.7-2.5,0.7-3.9c0-3.3-1.4-6.3-3.5-8c-0.9,0.6-1.7,1.4-2.4,2.4
		c0.5-1.7,0.6-3.5,0.1-5c-1.8,0-3.7,0.5-5.4,1.6c-2.4,0.3-4.9,1.5-6.7,3.7c-0.2,0.2-0.3,0.4-0.5,0.6c-0.6-1.9-1.6-3.5-3-4.6
		c-2.5,1.7-4.2,4.9-4.2,8.5c0,2.2,0.6,4.2,1.6,5.8h-0.7c-0.7-0.8-1.4-1.5-2.2-2c-0.5-2.4-1.7-4.4-3.3-5.8c-2.5,1.7-4.2,4.9-4.2,8.5
		c0,0.5,0,0.9,0.1,1.4c-1.3-2.3-3.3-4-5.4-4.7c-1.7,2.4-2.2,6-0.8,9.5c0.3,0.8,0.7,1.5,1.1,2.2l-0.6-0.3c-3.1-1.3-6.3-1.2-8.8,0
		c0.3,1.8,1.3,3.6,2.8,5c-1.8,0.8-3.2,2-4.1,3.5c1.6,1.9,4.2,3.1,7.2,3.2c-1.8,1.5-3,3.3-3.4,5.3c1.8,1,4,1.3,6.3,1
		c-0.7,1-1.2,2.1-1.5,3.3c2.3,1.2,5.2,1.5,8.1,0.5c1.8,1.9,4.7,3.2,7.9,3c2.2-0.1,4.3-0.8,5.9-1.9c0.7,1.8,1.5,3.6,2.2,5.2
		c1.4,3.2,2.7,6.2,3,8.2c0.1,0.4,0.1,1,0.1,1.7H98.6v-12.3h-3.1V119l-9.6-9.6H68.3l-10.2,10.2v-13.5H55v62.2h15.2v-13.2
		c0-1.2,0.8-2.1,1.8-2.1h1.9v-6.1h1.9v6.1h1.9v-6.1h1.9v6.1h1.9c1,0,1.8,1,1.8,2.1v13.2h15.2v-37.1h18.6v1.6h-17v35.5h15.1
		c0,0.4-0.1,0.8-0.1,1.2H54.7v1.5h62.5c0.2-1.4,0.4-3.4,0.6-6c0-0.6,0.1-1.2,0.1-1.8c0-0.3,0-0.6,0.1-1c0.3-3.6,0.5-7.9,0.7-12.3
		v-0.3v-0.9v-0.3v-0.9v-0.4v-0.8v-0.5v-0.7v-0.5v-0.8v-0.4v-0.7v-0.5v-0.6v-0.5v-0.7v-0.6v-0.6v-0.6V138v-0.6v-0.6v-0.6v-0.6V135
		v-0.5v-0.6v-0.4v-0.7v-1.6v-0.1v-1.3c0.1-4,0.1-7.6,0-10.1V119v-0.6c0-0.9-0.1-1.6-0.2-2.1c-1.2-6.9-10.4-20-7.7-30.1
		c0.6-2.1,1.2-3.6,1.2-3.6s-1,14.4,7.9,23.4c0,0,3.6-19.4,9.4-22.8c0,0-7.2,13.1-7,46.7v20.7c0,0.8,0.1,1.7,0.1,2.4v8.9
		c0,1.1,0.1,2,0.1,2.9v3.4c0.1,1.2,0.2,2.1,0.2,2.8l30.4-0.1c0,0.8-0.1,1.6-0.1,2.5l-0.1,3h12.2l-0.6-2.3c-0.2-0.7-0.4-1.8-0.5-3.2
		h108.6c-0.1,1.4-0.3,2.5-0.5,3.2l-0.6,2.3h12.2l-0.1-3c0-0.8-0.1-1.7-0.1-2.5h30.4c0.1-0.7,0.1-1.6,0.2-2.7v-0.1v-0.4v-0.1v-0.4
		v-0.1v-0.4v-0.1v-0.4v-0.1v-0.5v-0.1v-0.6v-0.1c0-0.9,0.1-1.8,0.1-2.9v-0.1v-0.7v-0.3v-0.6V160v-0.6v-0.2v-0.6v-0.3v-0.6v-0.4v-0.7
		v-0.3v-0.8v-0.2v-0.9v-0.3v-1V153c0-0.8,0.1-1.6,0.1-2.4v-0.2v-1.1V149v-1v-0.3v-1v-0.4v-1v-0.5v-0.9v-0.6v-0.9v-0.5v-1v-0.6v-0.9
		v-0.7v-1.1V137v-1.3v-0.4v-1.8v-0.6v-3c0.2-33.6-7-46.7-7-46.7c5.8,3.5,9.4,22.8,9.4,22.8c8.8-9,7.9-23.4,7.9-23.4s0.6,1.5,1.2,3.6
		c2.8,10.1-6.5,23.2-7.7,30.1c-0.1,0.5-0.1,1.2-0.2,2.1v1.3c-0.1,2.5,0,6,0,10.1v20.1c0.2,4.5,0.5,8.7,0.7,12.3c0,0.3,0,0.6,0.1,1
		c0,0.6,0.1,1.3,0.1,1.8c0.2,2.5,0.4,4.5,0.6,5.9h62.5v-1.5L325,169.5L325,169.5z M353.4,164.8h-3.5v-6.7h3.5V164.8z M353.4,153.6
		h-3.5v-6.7h3.5V153.6L353.4,153.6z M353.4,142.3h-3.5v-6.7h3.5V142.3z M354.3,123.9v7.8H349v-7.8v-0.4v-0.1l2.5-2.5h0.2l2.6,2.6
		v0.1C354.4,123.6,354.3,123.8,354.3,123.9L354.3,123.9z M362.3,142.3h-1.9v-6.5h1.9V142.3z M366.2,142.3h-1.9v-6.5h1.9V142.3z
		 M376.6,164.8h-3.5v-6.7h3.5V164.8z M376.6,153.6h-3.5v-6.7h3.5V153.6L376.6,153.6z M376.6,142.3h-3.5v-6.7h3.5V142.3z
		 M377.6,123.9v7.8h-5.3v-7.8v-0.4v-0.1l2.5-2.5h0.2l2.6,2.6L377.6,123.9L377.6,123.9z M368.2,123.7l-1.1,0.8v7.2h-7.4v-7.2
		l-1.1-0.8l4.8-4.8L368.2,123.7z M343.7,89.4l0.1,0.1h-0.3C343.6,89.4,343.6,89.4,343.7,89.4L343.7,89.4z M337.1,93.9
		c0.7-1,1.1-2,1.4-3c0.4,0,0.9-0.1,1.3-0.2c0.3,1.1,0.7,2.1,1.4,3C339.8,93.6,338.4,93.6,337.1,93.9L337.1,93.9z M338,78.9
		c0.5,0.5,1,0.9,1.5,1.3c0.8-0.6,1.5-1.4,2-2.4c-0.2,1.5-0.1,2.9,0.3,4.2c-0.7,0.2-1.3,0.4-2,0.6c-1.4,0.6-2.6,1.4-3.6,2.4
		c0-1.1-0.2-2.2-0.5-3.2C336.6,81.1,337.4,80.1,338,78.9L338,78.9z M335.4,96c0.2,0.6,0.5,1.2,0.9,1.8c-0.8-0.2-1.6-0.3-2.5-0.4
		h-0.3C334.1,97,334.8,96.5,335.4,96z M96.2,89.4l0.1-0.1c0.1,0,0.1,0.1,0.2,0.1C96.4,89.5,96.3,89.4,96.2,89.4z M98.6,77.9
		c0.5,0.9,1.2,1.7,2,2.4c0.5-0.4,1-0.8,1.5-1.3c0.6,1.2,1.4,2.2,2.3,3c-0.3,1-0.5,2.1-0.5,3.2c-1-1-2.2-1.8-3.6-2.4
		c-0.7-0.3-1.3-0.5-2-0.6C98.6,80.8,98.8,79.3,98.6,77.9L98.6,77.9z M98.8,93.8c0.7-0.9,1.1-2,1.4-3c0.4,0.1,0.9,0.1,1.3,0.2
		c0.3,1,0.8,2.1,1.4,3C101.6,93.6,100.2,93.6,98.8,93.8L98.8,93.8z M106.2,97.4c-0.9,0-1.7,0.2-2.5,0.4c0.4-0.6,0.7-1.1,0.9-1.8
		c0.6,0.5,1.2,1,1.9,1.4H106.2L106.2,97.4z M66.9,164.8h-3.5v-6.7h3.5V164.8z M66.9,153.6h-3.5v-6.7h3.5V153.6L66.9,153.6z
		 M66.9,142.3h-3.5v-6.7h3.5V142.3z M67.8,123.9v7.8h-5.3v-7.8v-0.4v-0.2l2.5-2.5h0.2l2.6,2.6V123.9z M75.8,142.3h-1.9v-6.5h1.9
		V142.3z M79.6,142.3h-1.9v-6.5h1.9L79.6,142.3L79.6,142.3z M80.5,124.4v7.2h-7.4v-7.2l-1.1-0.8l4.8-4.8l4.8,4.8L80.5,124.4z
		 M90.1,164.8h-3.5v-6.7h3.5V164.8z M90.1,153.6h-3.5v-6.7h3.5V153.6L90.1,153.6z M90.1,142.3h-3.5v-6.7h3.5V142.3z M91,123.9v7.8
		h-5.3v-7.8v-0.4v-0.2l2.5-2.5h0.2l2.6,2.6L91,123.9L91,123.9z M106.7,164.9h-3.5v-6.7h3.5V164.9z M106.7,153.7h-3.5V147h3.5V153.7z
		 M106.7,142.4h-3.5v-6.7h3.5V142.4z M115.4,164.9h-3.5v-6.7h3.5V164.9z M115.4,153.7h-3.5V147h3.5V153.7z M115.4,142.4h-3.5v-6.7
		h3.5V142.4z M106.2,125.9v3.8h-7.7v-10.1H109l-4,5.5L106.2,125.9L106.2,125.9z M117.2,129.8h-4.8v-3.9l1.1-0.8l-4-5.5h7.7
		C117.3,122.1,117.2,125.7,117.2,129.8L117.2,129.8z M110.9,72.4c0.6-0.6,1.1-1.3,1.5-2.1c0.9-0.1,1.9-0.4,2.8-0.8
		c-0.4,0.9-0.6,1.9-0.7,3c-0.1,0.9-0.1,1.8,0,2.7C113.5,73.9,112.2,73,110.9,72.4L110.9,72.4z M119.4,100.5
		c-0.5-0.8-0.9-1.7-1.3-2.5c1.6-1.8,2.6-4.3,2.6-7.1V90c0.4,0.7,0.8,1.4,1.3,2C120.9,95,120.1,98,119.4,100.5z M126.6,80.9
		c-0.6-1.8-1.6-3.3-2.9-4.4c-2.5,1.7-4.2,4.9-4.2,8.5v0.9c-0.6-1.2-1.4-2.2-2.3-3c0.1-0.7,0-1.5-0.1-2.2c2.6-1.4,4.6-4.4,5-8
		c0.2-2.1-0.2-4.1-1-5.8c0.7-0.5,1.4-1.1,2-1.8c0.4-0.4,0.7-0.9,1-1.4c-0.2,0.8-0.4,1.6-0.5,2.5c-0.5-0.1-0.9-0.1-1.4-0.1
		c-0.8,2.9,0,6.4,2.5,9.2c0.9,1,1.9,1.8,2.9,2.4C127.2,78.6,126.8,79.7,126.6,80.9L126.6,80.9z M299.8,71.2c0.4,1.5,1.2,3.1,2.4,4.4
		c0.6,0.7,1.2,1.2,1.9,1.7c-0.4,0.9-0.7,1.9-0.9,2.9c-0.8-0.8-1.7-1.5-2.6-2c0.5-2.5,0.1-4.9-1-6.8
		C299.7,71.4,299.8,71.3,299.8,71.2z M302.8,100.3c-1.6-0.2-3.2,0-4.6,0.5c0.8-1.2,1.3-2.5,1.5-3.9c0.4,0.6,0.9,1.3,1.4,1.9
		C301.8,99.3,302.3,99.8,302.8,100.3z M296.2,94.5c0.7-0.5,1.3-1.1,1.8-1.8c0.2,1,0.6,1.9,1.1,2.9c-1.7-0.4-3.7-0.2-5.6,0.5
		C294.4,95.7,295.3,95.2,296.2,94.5z M292.5,74.4c0.7,0,1.4-0.1,2.2-0.2c-0.7,0.8-1.2,1.8-1.6,2.9c-0.4,0.9-0.6,1.9-0.7,2.8
		c-0.7,0.3-1.3,0.6-2,1v-0.8c0-1.2-0.2-2.4-0.5-3.5c1-0.7,1.8-1.6,2.5-2.7C292.4,74.1,292.4,74.2,292.5,74.4L292.5,74.4z M293,96.3
		l-1.8,0.9c-1.3,0.8-2.4,1.9-3.2,3.1c0.3-1.1,0.6-2.3,1-3.4C290.3,97,291.7,96.8,293,96.3z M291.4,62.8c-1,0.5-1.9,1.2-2.7,2.1
		c0.1-0.7,0.1-1.5,0-2.3v-0.1C289.6,62.7,290.5,62.8,291.4,62.8z M285.7,87.1c-0.1,0.5-0.2,1.1-0.3,1.6c-0.9,1.2-1.7,2.7-2.6,4.6
		c-0.6-2.2-1.4-4.6-2.4-6.6c1.2-0.5,2.3-1.3,3.3-2.3C284.3,85.5,284.9,86.4,285.7,87.1L285.7,87.1z M280.4,64.7
		c0.3-0.3,0.5-0.6,0.7-0.9c0.4,2.3,1.5,4.3,2.9,5.7c-1.2,0.5-2.4,1.2-3.5,2.1c-0.2-1.2-0.5-2.3-1.1-3.5c-0.3-0.6-0.7-1.2-1-1.7
		C279.2,66,279.8,65.4,280.4,64.7z M274.3,60v0.1l-0.1,0.1C274.2,60.1,274.3,60.1,274.3,60z M273.5,78l0.1,0.5c-0.3,1-0.4,2-0.4,3.1
		s0.2,2.2,0.5,3.2c-1.3-0.6-2.6-0.8-3.9-0.8c-0.2,0.6-0.3,1.3-0.3,2l-1.5-0.9c0-0.7-0.1-1.4-0.2-2.1c1.2,0.5,2.4,0.8,3.6,0.8
		c0.4-1.8,0.1-3.9-0.8-6C271.4,78.1,272.5,78.2,273.5,78L273.5,78z M272.9,62.6h-0.2c-0.2,0.4-0.4,0.9-0.6,1.4
		c-0.2-0.1-0.5-0.2-0.7-0.2c-0.3,0.5-0.5,1.1-0.7,1.7c0-1.5-0.4-3.1-1.1-4.6C270.6,61.7,271.7,62.3,272.9,62.6L272.9,62.6z
		 M264,68.3c0-1.2-0.2-2.4-0.7-3.5c2.1,1.9,4.6,2.9,7,2.9c0,0.7,0,1.5,0.1,2.2c-0.1-0.1-0.2-0.1-0.3-0.2
		C268.1,68.6,266,68.1,264,68.3z M264.9,91.9c1,0.1,2.1,0,3-0.3c0.3,0.6,0.5,1.4,0.9,2.2C267.7,93,266.4,92.3,264.9,91.9L264.9,91.9
		z M274.6,119.7c0.1,2.9,0.2,6.3,0.3,10.1h-3v-3.9l1.1-0.8l-4-5.5L274.6,119.7L274.6,119.7z M268.6,119.7l-4,5.5l1.1,0.8v3.8h-2.2
		l-4.1-10.1L268.6,119.7L268.6,119.7z M252.5,121.9h3.5v6.7h-3.5V121.9z M192.4,107h55.4v14.2h-3v-8.8h-5.4v8.8h-5.6v-8.8h-5.4v8.8
		h-5.6v-8.8h-5.7v0.1h0.3v8.7h-5.6v-8.8h-5.4v8.8h-5.6v-8.8h-5.4v8.8h-3.1L192.4,107L192.4,107z M190.3,120.5v0.7h-0.1L190.3,120.5z
		 M184.1,121.9h3.5v6.7h-3.5V121.9z M180.6,119.7l-4.1,10.1h-2.2v-3.9l1.1-0.8l-4-5.5L180.6,119.7L180.6,119.7z M171,119.7l-4,5.5
		l1.1,0.8v3.8h-3c0.1-3.8,0.2-7.2,0.3-10.1L171,119.7L171,119.7z M171.3,93.8c0.3-0.8,0.6-1.6,0.9-2.2c1,0.2,2,0.3,3,0.3
		C173.7,92.3,172.4,93,171.3,93.8L171.3,93.8z M176.7,64.8c-0.5,1.2-0.7,2.4-0.7,3.5c-2-0.2-4.2,0.3-6.2,1.4
		c-0.1,0.1-0.2,0.1-0.3,0.2c0.1-0.8,0.2-1.5,0.1-2.2C172.1,67.7,174.7,66.7,176.7,64.8z M170.5,60.8c-0.8,1.5-1.1,3.1-1.1,4.6
		c-0.2-0.6-0.4-1.2-0.7-1.7c-0.2,0.1-0.5,0.1-0.7,0.2c-0.2-0.5-0.4-0.9-0.6-1.4h-0.2C168.3,62.3,169.5,61.7,170.5,60.8L170.5,60.8z
		 M166.5,78.5l0.1-0.5c1,0.1,2,0.1,3.1-0.1c-0.9,2.1-1.2,4.2-0.8,6c1.2,0,2.4-0.3,3.6-0.8c-0.1,0.7-0.2,1.4-0.2,2.1l-1.5,0.9
		c0-0.7-0.1-1.4-0.3-2c-1.3,0-2.6,0.2-3.9,0.8c0.3-1,0.5-2.1,0.5-3.2C167,80.6,166.8,79.5,166.5,78.5L166.5,78.5z M165.8,60v0.2
		c0,0,0-0.1-0.1-0.1C165.8,60.1,165.8,60,165.8,60z M158.9,63.8c0.2,0.3,0.4,0.6,0.7,0.9c0.6,0.7,1.3,1.3,2,1.8
		c-0.4,0.5-0.7,1.1-1,1.7c-0.6,1.1-0.9,2.3-1.1,3.5c-1.1-1-2.3-1.7-3.5-2.1C157.4,68.1,158.5,66.1,158.9,63.8L158.9,63.8z
		 M156.3,84.4c1,1,2.1,1.8,3.3,2.3c-1,2-1.8,4.4-2.4,6.6c-0.9-1.9-1.7-3.4-2.6-4.6c0-0.5-0.1-1.1-0.3-1.6
		C155.1,86.4,155.8,85.5,156.3,84.4L156.3,84.4z M151.3,62.5v0.1c-0.1,0.8-0.1,1.5,0,2.3c-0.8-0.9-1.7-1.6-2.7-2.1
		C149.6,62.8,150.5,62.7,151.3,62.5z M147.6,74.4c0-0.2,0.1-0.3,0.1-0.5c0.7,1.1,1.6,2,2.5,2.7c-0.3,1.1-0.5,2.2-0.5,3.5v0.8
		c-0.6-0.4-1.3-0.8-2-1c-0.1-0.9-0.3-1.9-0.7-2.8c-0.4-1.1-1-2-1.6-2.9C146.1,74.3,146.9,74.4,147.6,74.4L147.6,74.4z M151,96.9
		c0.3,1.1,0.7,2.2,1,3.4c-0.8-1.2-1.9-2.2-3.2-3.1c-0.6-0.4-1.2-0.7-1.8-0.9C148.3,96.8,149.7,97,151,96.9z M142,92.8
		c0.5,0.6,1.1,1.2,1.8,1.8c0.9,0.7,1.8,1.2,2.7,1.6c-1.9-0.7-3.8-0.8-5.6-0.5C141.5,94.7,141.8,93.7,142,92.8z M141.8,100.7
		c-1.4-0.5-2.9-0.7-4.6-0.5c0.5-0.5,1.1-0.9,1.6-1.5c0.6-0.6,1-1.3,1.4-1.9C140.4,98.2,141,99.5,141.8,100.7z M137.8,75.6
		c1.2-1.3,2-2.9,2.4-4.4l0.3,0.3c-1.1,1.9-1.5,4.3-1,6.8c-0.9,0.5-1.8,1.2-2.6,2c-0.2-1-0.5-2-0.9-2.9
		C136.6,76.9,137.2,76.3,137.8,75.6z M129.5,91.5c1.4,0.7,3,1,4.7,1l-0.9,0.9c-2.8,3.1-4,7-3.4,10c0.3,0,0.5-0.1,0.8-0.1
		c-1.4,1.4-2.4,3-2.8,4.8c2.4,1.3,5.7,1.5,8.8,0.3s5.3-3.6,6.1-6.3c0.6,0.7,1.4,1.4,2.3,1.9c2.7,1.7,5.7,2.2,8.3,1.5
		c0.2,0.7,0.4,1.4,0.5,2l0.8,3.2c0.4,1.6,0.7,4.2,1,7.7h-12.5v-7.1h-4.8v7.1h-12.7C126.2,105.7,128,97,129.5,91.5L129.5,91.5z
		 M155.9,129.1v0.6h-1.8v-3.8l0.6-0.4l0.5-0.4l-3.9-5.4h4.4c0.1,1.6,0.1,3.4,0.2,5.3l-0.1-0.2C155.8,125.5,155.8,127.5,155.9,129.1z
		 M148,125.9v3.8h-14.6v-3.8l1.1-0.8l-4-5.5h20.3l-4,5.5L148,125.9L148,125.9z M125.4,125.2c-0.2-0.9,0.1-4.6,0.2-5.5h4.6l-3.9,5.4
		l1.1,0.9v3.8h-1.9C125.4,128.2,125.4,126.7,125.4,125.2L125.4,125.2z M155,169.5h-28.2c0-0.4-0.1-0.8-0.1-1.2h28.4
		C155,168.7,155,169.1,155,169.5L155,169.5z M133,147v6.7h-3.5V147H133z M129.6,142.4v-6.7h3.5v6.7H129.6z M133,158.2v6.7h-3.5v-6.7
		H133z M142.4,147v6.7h-3.5V147H142.4z M139,142.4v-6.7h3.5v6.7H139z M142.4,158.2v6.7h-3.5v-6.7H142.4z M151.8,147v6.7h-3.5V147
		H151.8z M148.4,142.4v-6.7h3.5v6.7H148.4z M151.8,158.2v6.7h-3.5v-6.7H151.8z M125.4,132.7v-1.6H156v1.6H125.4z M157.1,174.4
		c0-1,0.1-2.1,0.2-3.5v-0.1c0-0.8,0.1-1.7,0.1-2.6V168c0-0.4,0-0.8,0.1-1.3v-0.6V165v-0.6c0-0.5,0-0.9,0.1-1.4v-0.5
		c0-0.5,0-1.1,0.1-1.6v-0.5c0-0.6,0-1.1,0.1-1.7v-0.5c0-0.6,0-1.2,0.1-1.8v-0.3c0-0.6,0-1.3,0.1-1.9V154c0-0.7,0-1.3,0.1-2v-0.4
		c0-0.7,0-1.3,0.1-2v-0.4c0-0.7,0-1.4,0.1-2.1v-0.3c0-0.7,0-1.5,0.1-2.2v-0.1v-2.2v-0.2v-2.2v-0.3v-2.1v-0.3v-2.1v-0.2v-2.2v-1.6
		V131c0-4.1-0.1-8-0.3-11.4c0-0.4,0-0.9-0.1-1.3c-0.2-3.5-0.5-6.4-1-8.2c-2.9-11.1-5.8-24-9.6-24.2c0,0,6-0.2,10.6,16.1
		c0,0,1.3-11.9,5.4-16.9c0,0-2.3,16.1-1.9,19.4c0,0,3.1-12.3,9.6-15.9c0,0-7.1,16.3-7.5,24.2c-0.1,1.3-0.2,3.6-0.2,6.6v0.3
		c-0.1,2.9-0.2,6.3-0.3,10.1c-0.1,5.3-0.2,11.3-0.2,17.2v9.3c0.1,5.1,0.2,9.6,0.5,13.1c0,0.5,0.1,1,0.1,1.5c0.1,1.4,0.3,2.6,0.5,3.5
		L157.1,174.4L157.1,174.4z M266.7,153.7V147h3.5v6.7H266.7z M270.2,158.2v6.7h-3.5v-6.7H270.2z M266.7,142.4v-6.7h3.5v6.7H266.7z
		 M263.4,132.7v35.5h11.2c0,0.4-0.1,0.8-0.1,1.2H165.6c0-0.4-0.1-0.8-0.1-1.2h11.2v-35.5h-11.5v-1.6l24.9,0.1V123h59.7v8.3l25-0.1
		v1.6L263.4,132.7L263.4,132.7z M173.3,147v6.7h-3.5V147H173.3z M169.9,142.4v-6.7h3.5v6.7H169.9z M173.3,158.2v6.7h-3.5v-6.7H173.3
		z M281.8,134.9v12.2c0,0.7,0,1.4,0.1,2.1v0.4c0,0.7,0,1.3,0.1,2v0.4c0,0.7,0,1.3,0.1,2v0.2c0,0.6,0,1.3,0.1,1.9v0.3
		c0,0.6,0,1.2,0.1,1.8v0.5c0,0.6,0,1.1,0.1,1.7v0.5c0,0.5,0,1.1,0.1,1.6v0.5c0,0.5,0,0.9,0.1,1.4v2.3c0,0.4,0,0.9,0.1,1.3v0.2
		c0,0.9,0.1,1.8,0.1,2.6v0.1c0.1,1.3,0.1,2.5,0.2,3.5h-6.8c0.2-0.9,0.4-2,0.5-3.5c0-0.5,0.1-0.9,0.1-1.5c0.3-3.5,0.4-8,0.5-13.1
		v-2.2v-2.3v-0.1v-2.3V147c0-5.9-0.1-11.8-0.2-17.2c-0.1-3.8-0.2-7.2-0.3-10.1v-0.3c-0.1-3-0.2-5.3-0.2-6.6
		c-0.4-7.9-7.5-24.2-7.5-24.2c6.5,3.6,9.6,15.9,9.6,15.9c0.4-3.3-1.9-19.4-1.9-19.4c4,5,5.4,16.9,5.4,16.9
		c4.6-16.3,10.5-16.1,10.5-16.1c-3.8,0.2-6.7,13.1-9.6,24.2c-0.5,1.9-0.8,4.7-1,8.2c0,0.4-0.1,0.8-0.1,1.3
		c-0.2,3.4-0.3,7.2-0.3,11.4v1.7C281.8,133.5,281.8,134.2,281.8,134.9z M284.1,125.8c0-1.9,0.2-4.5,0.2-6.1h4.4l-4,5.4l1.1,0.9v3.8
		H284C284.1,128.5,283.9,127,284.1,125.8L284.1,125.8z M313.3,169.5h-28.2c0-0.4,0-0.8-0.1-1.2h28.4
		C313.3,168.7,313.3,169.1,313.3,169.5L313.3,169.5z M291.7,147v6.7h-3.5V147H291.7z M288.2,142.4v-6.7h3.5v6.7H288.2z M291.7,158.2
		v6.7h-3.5v-6.7H291.7z M301.1,147v6.7h-3.5V147H301.1z M297.6,142.4v-6.7h3.5v6.7H297.6z M301.1,158.2v6.7h-3.5v-6.7H301.1z
		 M310.5,147v6.7H307V147H310.5z M307,142.4v-6.7h3.5v6.7H307z M310.5,158.2v6.7H307v-6.7H310.5z M314.6,132.7H284v-1.6h30.6V132.7z
		 M306.6,125.9v3.8H292v-3.8l1.1-0.8l-4-5.5h20.3l-4,5.5L306.6,125.9L306.6,125.9z M314.7,129.8h-1.9v-3.9l1.1-0.8l-3.9-5.4h4.6
		C314.7,121.8,314.7,127.3,314.7,129.8L314.7,129.8z M310.6,91.5c1.5,5.5,3.2,14.2,3.8,26.9h-12.7v-7.1h-4.8v7.1h-12.5
		c0.2-3.5,0.5-6,1-7.7l0.8-3.2c0.2-0.6,0.3-1.3,0.5-2c2.6,0.7,5.6,0.2,8.3-1.5c0.9-0.6,1.6-1.2,2.3-1.9c0.8,2.6,3,5,6.1,6.3
		c3.1,1.2,6.3,1,8.8-0.3c-0.4-1.7-1.3-3.4-2.8-4.8c0.3,0,0.5,0.1,0.8,0.1c0.6-3-0.5-6.9-3.4-10l-0.9-0.9
		C307.6,92.5,309.2,92.2,310.6,91.5z M320.6,100.5c-0.6-2.5-1.5-5.5-2.5-8.5c0.5-0.6,1-1.3,1.3-2v0.9c0,2.8,1,5.4,2.6,7.1
		C321.6,98.9,321.1,99.7,320.6,100.5z M322.8,82.9c-0.9,0.8-1.7,1.8-2.3,3V85c0-3.7-1.7-6.9-4.2-8.5c-1.3,1.1-2.3,2.6-2.9,4.4
		c-0.2-1.2-0.6-2.3-1.1-3.3c1-0.6,2-1.4,2.9-2.4c2.4-2.8,3.2-6.3,2.5-9.2c-0.5,0-0.9,0-1.4,0.1c-0.1-0.9-0.2-1.7-0.5-2.5
		c0.3,0.5,0.6,0.9,1,1.4c0.6,0.7,1.3,1.3,2,1.8c-0.8,1.7-1.2,3.7-1,5.8c0.4,3.6,2.4,6.6,5,8C322.7,81.5,322.7,82.2,322.8,82.9
		L322.8,82.9z M325.5,75.1c0.1-0.9,0.1-1.8,0-2.7c-0.1-1.1-0.4-2-0.7-3c0.9,0.4,1.9,0.7,2.8,0.8c0.4,0.8,0.9,1.5,1.5,2.1
		C327.8,73,326.6,73.9,325.5,75.1L325.5,75.1z M341.5,119.7v10.1h-7.7v-3.9l1.1-0.8l-4-5.5L341.5,119.7L341.5,119.7z M322.8,119.7
		h7.7l-4,5.5l1.1,0.8v3.8h-4.8L322.8,119.7L322.8,119.7z M333.3,135.7h3.5v6.7h-3.5V135.7z M333.3,147h3.5v6.7h-3.5V147z
		 M333.3,158.2h3.5v6.7h-3.5V158.2z M324.7,135.7h3.5v6.7h-3.5V135.7z M324.7,147h3.5v6.7h-3.5V147z M324.7,158.2h3.5v6.7h-3.5
		V158.2z"/>
	<path class="st0" d="M220.4,73.8v-3.2h4.5v-3.7h-5.7v6.9h-8v5.8h17.4v-5.8 M188.4,102.8h63.2v1.5h-63.2V102.8z M216.4,101.5v-5.6
		l-1.4-0.8l5-6.6l5,6.6l-1.4,0.8v5.6h26.2c-0.3-0.7-0.5-1.3-0.8-1.9V83.3h-5.4v8.3c-3.9-4.3-9-7.5-14.8-9.1v-1.6h-17.5v1.6
		c-5.8,1.6-10.9,4.8-14.8,9.1v-8.3h-5.4v16.3c-0.3,0.6-0.6,1.3-0.8,1.9H216.4L216.4,101.5z M251,124.2h-63.2l-0.1,1.4h63.2
		 M192.2,126.8v22.1h3.9V143v-0.3v-0.2l1.9-1.9h0.3l2,2v6.3h6.6V143v-0.3v-0.2l1.9-1.9h0.3l2,2v6.3h3.5l3.1-3.1V143v-0.3v-0.2
		l1.9-1.9h0.3l2,2v3.1l3.2,3.2h3.4V143v-0.3v-0.2l1.9-1.9h0.3l2,2v6.3h6.6V143v-0.3v-0.1l2.1-2.1h0.4l1.9,1.9v6.5h3.9v-22.1H192.2z
		 M198.2,129l2.2,2.2v5.9h-4.3v-5.6v-0.3v-0.1L198.2,129L198.2,129z M209.2,129l2.2,2.2v5.9h-4.3v-5.6v-0.3v-0.1L209.2,129
		L209.2,129z M220.1,129l2.2,2.2v5.9H218v-5.6v-0.3v-0.1L220.1,129L220.1,129z M231.1,129l2.2,2.2v5.9H229v-5.6v-0.3v-0.1L231.1,129
		L231.1,129z M242.1,129C242.2,129,242.2,129,242.1,129l2.1,2.1v6h-4.3v-5.6v-0.2L242.1,129L242.1,129z"/>
</g>
</svg>
